<?xml version="1.0" encoding="UTF-8" standalone="no"?>
<!-- Created with Inkscape (http://www.inkscape.org/) -->

<svg
   width="2.0999999in"
   height="3.3499999in"
   viewBox="0 0 53.339998 85.090001"
   version="1.1"
   id="svg5"
   inkscape:version="1.1 (c68e22c387, 2021-05-23)"
   sodipodi:docname="new-year-prayer.svg"
   xmlns:inkscape="http://www.inkscape.org/namespaces/inkscape"
   xmlns:sodipodi="http://sodipodi.sourceforge.net/DTD/sodipodi-0.dtd"
   xmlns="http://www.w3.org/2000/svg"
   xmlns:svg="http://www.w3.org/2000/svg">
  <sodipodi:namedview
     id="namedview7"
     pagecolor="#505050"
     bordercolor="#eeeeee"
     borderopacity="1"
     inkscape:pageshadow="0"
     inkscape:pageopacity="0"
     inkscape:pagecheckerboard="0"
     inkscape:document-units="mm"
     showgrid="false"
     inkscape:zoom="2.3141989"
     inkscape:cx="9.0744144"
     inkscape:cy="136.76439"
     inkscape:window-width="1920"
     inkscape:window-height="1001"
     inkscape:window-x="-9"
     inkscape:window-y="-9"
     inkscape:window-maximized="1"
     inkscape:current-layer="layer1"
     fit-margin-top="0.1"
     fit-margin-left="0.1"
     fit-margin-right="0.1"
     fit-margin-bottom="0.1"
     lock-margins="true"
     units="in"
     height="3.375in" />
  <defs
     id="defs2" />
  <g
     inkscape:label="Layer 1"
     inkscape:groupmode="layer"
     id="layer1"
     transform="translate(308.93561,-385.70915)">
    <rect
       style="fill:#ffffff;fill-opacity:1;stroke:#aa0000;stroke-width:0.298634;stroke-miterlimit:4;stroke-dasharray:none;stroke-opacity:1"
       id="rect1022"
       width="53.041367"
       height="84.791367"
       x="-308.78629"
       y="385.85849" />
    <rect
       style="fill:#ffffff;fill-opacity:1;stroke:#aa0000;stroke-width:0.2;stroke-miterlimit:4;stroke-dasharray:none;stroke-opacity:1"
       id="rect1022-8"
       width="51.777157"
       height="83.527153"
       x="-308.15417"
       y="386.49057" />
    <g
       id="g908"
       transform="translate(-61.417808,2.2636268)">
      <text
         xml:space="preserve"
         style="font-size:5.52362px;line-height:1.25;font-family:Alcibiades;-inkscape-font-specification:Alcibiades;fill:#aa0000;stroke-width:0.138091"
         x="-234.92387"
         y="390.50766"
         id="text82011"><tspan
           sodipodi:role="line"
           id="tspan82009"
           style="font-style:normal;font-variant:normal;font-weight:normal;font-stretch:normal;font-family:Constantia;-inkscape-font-specification:Constantia;fill:#aa0000;stroke-width:0.138091"
           x="-234.92387"
           y="390.50766">A RESOLVE</tspan></text>
      <text
         xml:space="preserve"
         style="font-size:3.21618px;line-height:1.25;font-family:Alcibiades;-inkscape-font-specification:Alcibiades;fill:#aa0000;stroke-width:0.0804048"
         x="-245.0249"
         y="394.27768"
         id="text82011-3"><tspan
           sodipodi:role="line"
           id="tspan82009-0"
           style="font-style:normal;font-variant:normal;font-weight:normal;font-stretch:normal;font-family:Constantia;-inkscape-font-specification:Constantia;fill:#aa0000;stroke-width:0.0804048"
           x="-245.0249"
           y="394.27768">For Every Morning of the New Year</tspan></text>
    </g>
    <g
       id="g932"
       transform="translate(-61.804322,1.293501)">
      <path
         style="fill:#aa0000;stroke-width:0.0592086"
         d="m -242.34812,414.43938 c -0.30903,-0.0925 -0.51157,-0.34523 -0.89965,-1.12269 -0.0908,-0.18201 -0.0989,-0.2594 -0.0903,-0.87239 0.007,-0.44518 0.0212,-0.50361 0.17217,-0.6726 l 0.16535,-0.18506 0.18365,0.15452 c 0.2331,0.19615 0.39199,0.19572 0.5471,-0.002 0.20565,-0.26144 0.14178,-0.4851 -0.24655,-0.86338 -0.13477,-0.13126 -0.15575,-0.19082 -0.12467,-0.35374 0.0683,-0.35816 0.31547,-0.64712 0.73893,-0.86395 l 0.39301,-0.20124 0.0751,-0.36467 c 0.0413,-0.20058 0.072,-0.6268 0.0682,-0.94717 -0.008,-0.74303 -0.10936,-0.98148 -0.46116,-1.09285 -0.13327,-0.0421 -0.33107,-0.1508 -0.43955,-0.24137 -0.17832,-0.14887 -0.19976,-0.20113 -0.22358,-0.54498 -0.0303,-0.4384 -0.0906,-0.54147 -0.30365,-0.51912 -0.30702,0.0322 -0.30059,0.0805 -0.30284,-2.27745 -0.002,-1.79742 -0.0177,-2.22922 -0.0867,-2.35004 -0.0465,-0.0814 -0.0855,-0.29597 -0.0867,-0.47679 -0.002,-0.3065 0.0142,-0.34529 0.23953,-0.57282 0.25377,-0.25629 0.55685,-0.43061 0.7487,-0.43061 0.11645,0 0.17692,0.0519 0.48299,0.41447 0.17459,0.20682 0.1759,0.20722 0.6682,0.20435 0.46348,-0.003 1.53905,-0.22657 2.55756,-0.53234 0.41122,-0.12345 1.28633,-0.11129 1.78826,0.0248 0.63621,0.17255 0.84662,0.28576 1.21386,0.65298 0.41836,0.41836 0.53329,0.71701 0.38574,1.00233 -0.0532,0.10298 -0.12278,0.19057 -0.15451,0.19464 -0.0317,0.004 -0.091,0.0113 -0.1317,0.0161 -0.0407,0.005 -0.11981,-0.0644 -0.17578,-0.15383 -0.11713,-0.18704 -0.36292,-0.27145 -0.48805,-0.16759 -0.0468,0.0388 -0.11434,0.15939 -0.15017,0.26797 -0.0888,0.26909 0.0381,0.56275 0.31768,0.7356 0.48781,0.30148 0.56245,0.66338 0.21204,1.02827 -0.10053,0.10469 -0.20894,0.25559 -0.2409,0.33533 -0.0319,0.0797 -0.0535,0.62046 -0.0478,1.20161 0.006,0.58116 -0.008,1.07543 -0.0316,1.09841 -0.023,0.023 -0.18842,0.0418 -0.36758,0.0418 -0.28232,0 -0.34453,0.0219 -0.46651,0.16362 -0.15304,0.17789 -0.14225,0.28697 0.0495,0.50017 0.10256,0.11402 0.10844,0.15334 0.0456,0.30499 -0.11127,0.26863 -0.29144,0.3958 -0.75754,0.5347 -0.51689,0.15405 -0.51958,0.15998 -0.51704,1.13286 0.002,0.61558 0.0158,0.70551 0.14489,0.91774 0.17164,0.28216 0.22289,0.322 0.4158,0.32318 0.0984,8e-4 0.20253,-0.0674 0.31043,-0.20263 0.36698,-0.45995 1.21855,-0.27901 1.34598,0.28599 0.0761,0.33749 -0.0191,0.53761 -0.32384,0.68087 -0.54099,0.25429 -0.35465,0.75952 0.21939,0.59488 0.22227,-0.0637 0.4501,0.0227 0.51381,0.19485 0.0581,0.15716 -0.0305,0.45526 -0.14892,0.50069 -0.20781,0.0797 -0.0265,0.42766 0.31428,0.60319 0.41374,0.21308 0.14283,0.90298 -0.4672,1.18973 -0.17466,0.0821 -0.31678,0.20999 -0.42685,0.38412 -0.0907,0.14357 -0.19814,0.27377 -0.23865,0.28931 -0.0405,0.0155 -0.79211,0.0476 -1.67022,0.0713 -1.8488,0.0499 -1.75209,0.0697 -2.17369,-0.44677 -0.2013,-0.24661 -0.59372,-0.47367 -0.81861,-0.47367 -0.25652,0 -0.40289,0.20609 -0.40289,0.56731 0,0.22637 -0.0248,0.31768 -0.0936,0.34408 -0.13058,0.0501 -0.55345,0.0358 -0.75869,-0.0256 z m 0.42604,-0.36482 c 0.0391,-0.0391 0.071,-0.15983 0.071,-0.26834 0,-0.27296 0.13259,-0.56392 0.32646,-0.71642 0.19439,-0.15291 0.71071,-0.1771 0.96427,-0.0451 0.18677,0.0972 0.41471,0.32971 0.50943,0.5197 0.15126,0.3034 0.80714,0.5824 1.36345,0.57998 0.27925,-9.3e-4 0.61777,-0.11975 0.87472,-0.3063 0.0843,-0.0612 0.12602,-0.0498 0.25322,0.0698 0.13556,0.12735 0.19923,0.14159 0.57995,0.12969 0.32496,-0.0102 0.46322,-0.0418 0.5757,-0.13187 0.0814,-0.0651 0.2666,-0.19778 0.41154,-0.29467 0.37088,-0.24795 0.51101,-0.48263 0.41975,-0.70296 -0.0385,-0.0931 -0.15895,-0.21714 -0.26751,-0.27561 -0.1864,-0.10038 -0.20593,-0.10069 -0.35098,-0.006 -0.12181,0.0798 -0.1536,0.14838 -0.1536,0.33127 0,0.12684 -0.0166,0.27376 -0.0367,0.32648 -0.049,0.12761 -0.3466,0.2773 -0.46275,0.23273 -0.10555,-0.0405 -0.11224,-0.0709 -0.0961,-0.43732 0.01,-0.22794 -0.0155,-0.29424 -0.17701,-0.45886 -0.27836,-0.28386 -0.46419,-0.26129 -0.84957,0.10319 -0.33907,0.32068 -0.612,0.42211 -0.75394,0.28016 -0.11251,-0.11251 -0.26093,-0.56353 -0.20419,-0.62048 0.0242,-0.0243 0.44812,-0.0513 0.94211,-0.0599 1.0978,-0.0193 1.16461,-0.0318 1.16461,-0.21731 0,-0.25404 -0.0684,-0.33232 -0.43666,-0.50007 -0.47584,-0.21673 -0.73911,-0.44652 -0.88221,-0.77002 -0.10703,-0.24198 -0.12007,-0.45706 -0.15803,-2.60714 -0.0391,-2.21386 -0.021,-2.60984 0.11881,-2.60984 0.0775,0 0.17391,0.36425 0.17391,0.65736 0,0.15642 0.0309,0.35228 0.0687,0.43522 0.12521,0.27479 0.45785,0.13348 0.4623,-0.19638 9.3e-4,-0.077 0.0583,-0.24044 0.12737,-0.36325 0.11601,-0.20642 0.37173,-0.36973 0.77877,-0.49734 0.1423,-0.0447 0.19,-0.19237 0.11515,-0.35665 -0.0445,-0.0977 -0.13133,-0.14696 -0.30916,-0.17539 l -0.24725,-0.0395 0.0201,-0.30828 c 0.0171,-0.26135 0.004,-0.31151 -0.0888,-0.32946 -0.15222,-0.0296 -0.34808,0.17314 -0.5469,0.56611 l -0.16952,0.33505 -0.0401,-0.19618 c -0.0718,-0.35117 0.11564,-0.76798 0.64499,-1.43413 0.50164,-0.63126 0.55066,-0.7198 0.60003,-1.0837 0.0376,-0.27675 0.0279,-0.34385 -0.061,-0.42429 -0.0961,-0.087 -0.1296,-0.0874 -0.37387,-0.004 -0.17203,0.0586 -0.28141,0.0702 -0.30487,0.0322 -0.0201,-0.0326 -0.0273,-0.0655 -0.0158,-0.0731 0.0114,-0.007 0.094,-0.0598 0.18356,-0.11584 0.1158,-0.0725 0.16283,-0.15067 0.16283,-0.27088 0,-0.29306 -0.10959,-0.32807 -1.12879,-0.36077 -0.51359,-0.0165 -0.95375,-0.05 -0.97813,-0.0744 -0.0244,-0.0245 -0.0129,-0.0444 0.0257,-0.0444 0.0759,0 0.21727,-0.28464 0.27384,-0.55158 0.0434,-0.2045 0.32198,-0.33655 0.71011,-0.33655 0.27012,0 0.41547,0.087 0.55164,0.33037 0.0397,0.071 0.15624,0.11798 0.34713,0.1399 0.24086,0.0276 0.29037,0.0545 0.30625,0.16635 0.0253,0.17811 0.21503,0.27077 0.46024,0.22477 0.25181,-0.0473 0.35981,-0.24784 0.32668,-0.60676 -0.008,-0.0862 -0.36778,-0.43146 -0.45061,-0.43235 -0.0326,-4e-4 -0.1316,-0.0384 -0.22008,-0.0846 -0.41288,-0.2154 -1.70987,-0.2405 -2.26669,-0.0438 -0.36117,0.12753 -1.31173,0.44114 -1.59863,0.52741 -0.16282,0.049 -0.49586,0.0921 -0.7401,0.0959 -0.51777,0.008 -0.77286,-0.0981 -0.88464,-0.36795 -0.1882,-0.45435 -0.73724,-0.10417 -0.62659,0.39964 0.038,0.17264 0.38518,0.53928 0.51077,0.53928 0.0337,0 0.007,0.0773 -0.0612,0.17195 -0.0674,0.0946 -0.12245,0.22421 -0.12245,0.28807 0,0.14332 0.21666,0.4281 0.32572,0.4281 0.0872,0 0.55128,0.58167 0.71704,0.89876 0.28536,0.54585 0.35728,1.58943 0.391,5.6734 l 0.0168,2.04269 -0.16917,0.26051 c -0.093,0.14328 -0.31285,0.40305 -0.48846,0.57727 -0.43356,0.4301 -0.41762,0.67205 0.0443,0.67205 0.29515,0 0.33586,0.0902 0.0972,0.21525 -0.13482,0.0706 -0.30892,0.098 -0.56825,0.0891 -0.35024,-0.0119 -0.38485,-9.3e-4 -0.54768,0.17335 -0.32347,0.34627 -0.20357,0.90358 0.26328,1.22373 0.20729,0.14216 0.4509,0.16965 0.55762,0.0629 z m 1.85797,-1.38417 c -0.13612,-0.11652 -0.24749,-0.23392 -0.24749,-0.26088 0,-0.0672 0.55643,-0.13866 0.70705,-0.0908 0.067,0.0213 0.12187,0.0865 0.12187,0.14512 0,0.11106 -0.21281,0.41846 -0.28969,0.41846 -0.0244,0 -0.15563,-0.0953 -0.29174,-0.21184 z m -1.0517,-0.84898 c -0.0664,-0.0663 -0.0122,-0.30311 0.0851,-0.37163 0.0605,-0.0425 0.17166,-0.19726 0.24714,-0.34381 0.13036,-0.25303 0.13686,-0.32299 0.12942,-1.3914 -0.018,-2.57708 -0.0846,-5.65646 -0.13198,-6.09849 -0.0605,-0.56459 -0.22123,-0.95238 -0.57473,-1.38684 -0.19246,-0.23653 -0.24074,-0.33236 -0.18333,-0.36385 0.0795,-0.0436 1.77914,-0.0818 2.87555,-0.0647 0.55717,0.008 0.60689,0.0189 0.60689,0.12396 0,0.063 -0.1329,0.25091 -0.29532,0.41767 -0.47902,0.49178 -0.50033,0.62346 -0.45057,2.78354 0.0229,0.99323 0.0536,2.6185 0.0683,3.61173 0.0147,0.99322 0.0419,1.92125 0.0605,2.06228 0.0278,0.21164 0.0948,0.31902 0.38326,0.61476 0.19224,0.19708 0.33389,0.38364 0.31477,0.41458 -0.0333,0.054 -3.08077,0.0463 -3.13505,-0.007 z m 2.10259,-0.41554 c 0.0701,-0.0444 0.0732,-0.1077 0.018,-0.36915 -0.0769,-0.36448 -0.19424,-4.40265 -0.19258,-6.62702 9.3e-4,-1.17462 0.0197,-1.5542 0.0839,-1.68745 0.25882,-0.53762 0.1788,-0.59697 -0.75069,-0.55677 -0.37649,0.0163 -0.70535,0.0505 -0.7308,0.0761 -0.0255,0.0256 6.1e-4,0.17212 0.0579,0.32564 0.0909,0.24353 0.11093,0.63783 0.15706,3.09154 0.029,1.54681 0.0678,3.25639 0.086,3.79905 0.0187,0.55602 0.007,1.17311 -0.0275,1.41389 -0.0442,0.31175 -0.0423,0.44917 0.007,0.50836 0.0782,0.0941 1.15018,0.11553 1.29201,0.0258 z m 0.7177,-7.10704 c -0.0609,-0.0377 -0.0722,-0.15521 -0.0469,-0.48959 0.0432,-0.57081 0.14592,-0.90319 0.34511,-1.11644 0.19276,-0.20633 0.29012,-0.21925 0.29296,-0.0389 9.3e-4,0.0732 0.0402,0.19983 0.0867,0.28124 0.12541,0.21939 0.10733,0.34857 -0.074,0.52862 -0.25533,0.2535 -0.3558,0.41296 -0.39633,0.62897 -0.0427,0.22747 -0.0927,0.27708 -0.20757,0.20605 z m -2.63778,-2.89181 c -0.37908,-0.0236 -0.46984,-0.10933 -0.17053,-0.1613 0.12636,-0.022 0.3439,-0.077 0.48345,-0.12254 0.41361,-0.13477 0.80978,-0.10916 0.98245,0.0636 l 0.14619,0.1462 -0.1879,0.0293 c -0.27568,0.0431 -0.91404,0.0659 -1.25366,0.0448 z m 5.13011,10.71365 c 0.021,-0.0208 0.0553,-0.11931 0.0762,-0.21898 0.0526,-0.25025 -0.0884,-0.35735 -0.52889,-0.40173 -0.19538,-0.0197 -0.40751,-0.0431 -0.4714,-0.052 -0.22849,-0.032 -0.16031,0.15983 0.0997,0.28057 0.13932,0.0647 0.28419,0.18117 0.32195,0.25884 0.0378,0.0777 0.10437,0.16365 0.14801,0.19107 0.0781,0.049 0.27961,0.0163 0.35438,-0.0577 z m -0.79782,-1.62902 c 0.17352,-0.16329 0.25638,-0.29053 0.25638,-0.39371 0,-0.41857 -0.50867,-0.38506 -0.74144,0.0489 -0.0717,0.1336 -0.20321,0.25878 -0.33911,0.32275 -0.28198,0.1327 -0.28984,0.28869 -0.0225,0.44642 0.10974,0.0648 0.24962,0.18446 0.31085,0.266 l 0.1113,0.14827 0.084,-0.29865 c 0.0602,-0.21384 0.1569,-0.36719 0.34046,-0.53993 z m -4.9493,0.36876 c 0.10508,-0.19635 -0.0227,-0.56019 -0.21361,-0.6081 -0.31108,-0.0781 -0.47361,0.15874 -0.31428,0.4579 0.15244,0.28621 0.4151,0.36094 0.52789,0.1502 z m -0.005,-4.55034 c 0.16001,-0.16 0.14901,-0.39276 -0.0296,-0.62694 -0.17172,-0.22515 -0.18146,-0.3055 -0.0583,-0.48127 0.25281,-0.36094 0.2151,-1.18444 -0.0835,-1.8226 -0.18139,-0.3877 -0.76973,-1.21243 -0.86472,-1.21215 -0.0326,10e-5 -0.0936,0.0221 -0.13572,0.0487 -0.11918,0.0757 0.003,0.50568 0.21091,0.74249 0.0972,0.11069 0.22337,0.32347 0.28042,0.47284 0.14278,0.37389 0.0541,0.58633 -0.31948,0.76495 -0.47214,0.22575 -0.47434,0.65642 -0.005,0.87899 0.35045,0.16602 0.43479,0.30467 0.42399,0.6969 -0.0152,0.54914 0.28826,0.83035 0.58052,0.53808 z"
         id="path1140" />
      <text
         xml:space="preserve"
         style="font-size:4.24161px;line-height:1.25;font-family:Alcibiades;-inkscape-font-specification:Alcibiades;stroke-width:0.106041"
         x="-223.91025"
         y="437.98132"
         id="text1973"
         transform="scale(1.0884313,0.91875345)"><tspan
           sodipodi:role="line"
           id="tspan1971"
           style="font-style:normal;font-variant:normal;font-weight:normal;font-stretch:normal;font-family:TarragonEF;-inkscape-font-specification:TarragonEF;stroke-width:0.106041"
           x="-223.91025"
           y="437.98132">            will this day try to live</tspan><tspan
           sodipodi:role="line"
           style="font-style:normal;font-variant:normal;font-weight:normal;font-stretch:normal;font-family:TarragonEF;-inkscape-font-specification:TarragonEF;stroke-width:0.106041"
           x="-223.91025"
           y="443.37811"
           id="tspan19037">            a simple     sincere and</tspan><tspan
           sodipodi:role="line"
           style="font-style:normal;font-variant:normal;font-weight:normal;font-stretch:normal;font-family:TarragonEF;-inkscape-font-specification:TarragonEF;stroke-width:0.106041"
           x="-223.91025"
           y="448.77493"
           id="tspan19041">            serene life        repelling</tspan><tspan
           sodipodi:role="line"
           style="font-style:normal;font-variant:normal;font-weight:normal;font-stretch:normal;font-family:TarragonEF;-inkscape-font-specification:TarragonEF;stroke-width:0.106041"
           x="-223.91025"
           y="454.17172"
           id="tspan19035">promptly every thought of</tspan><tspan
           sodipodi:role="line"
           style="font-style:normal;font-variant:normal;font-weight:normal;font-stretch:normal;font-family:TarragonEF;-inkscape-font-specification:TarragonEF;stroke-width:0.106041"
           x="-223.91025"
           y="459.56854"
           id="tspan15307">discontent, anxiety, discourage-</tspan><tspan
           sodipodi:role="line"
           style="font-style:normal;font-variant:normal;font-weight:normal;font-stretch:normal;font-family:TarragonEF;-inkscape-font-specification:TarragonEF;stroke-width:0.106041"
           x="-223.91025"
           y="464.96533"
           id="tspan15309">ment, impurity and self-seek-</tspan><tspan
           sodipodi:role="line"
           style="font-style:normal;font-variant:normal;font-weight:normal;font-stretch:normal;font-family:TarragonEF;-inkscape-font-specification:TarragonEF;stroke-width:0.106041"
           x="-223.91025"
           y="470.36215"
           id="tspan15311">ing    cultivating cheerfulness</tspan><tspan
           sodipodi:role="line"
           style="font-style:normal;font-variant:normal;font-weight:normal;font-stretch:normal;font-family:TarragonEF;-inkscape-font-specification:TarragonEF;stroke-width:0.106041"
           x="-223.91025"
           y="475.75894"
           id="tspan15313">magnanimity, charity, and the</tspan><tspan
           sodipodi:role="line"
           style="font-style:normal;font-variant:normal;font-weight:normal;font-stretch:normal;font-family:TarragonEF;-inkscape-font-specification:TarragonEF;stroke-width:0.106041"
           x="-223.91025"
           y="481.15576"
           id="tspan15315">habit of holy silence        exer-</tspan><tspan
           sodipodi:role="line"
           style="font-style:normal;font-variant:normal;font-weight:normal;font-stretch:normal;font-family:TarragonEF;-inkscape-font-specification:TarragonEF;stroke-width:0.106041"
           x="-223.91025"
           y="486.55255"
           id="tspan15317">cising economy in expendi-</tspan><tspan
           sodipodi:role="line"
           style="font-style:normal;font-variant:normal;font-weight:normal;font-stretch:normal;font-family:TarragonEF;-inkscape-font-specification:TarragonEF;stroke-width:0.106041"
           x="-223.91025"
           y="491.94937"
           id="tspan15319">ture, carefulness in conversa-</tspan><tspan
           sodipodi:role="line"
           style="font-style:normal;font-variant:normal;font-weight:normal;font-stretch:normal;font-family:TarragonEF;-inkscape-font-specification:TarragonEF;stroke-width:0.106041"
           x="-223.91025"
           y="497.34616"
           id="tspan15321">tion, diligence in appointed</tspan><tspan
           sodipodi:role="line"
           style="font-style:normal;font-variant:normal;font-weight:normal;font-stretch:normal;font-family:TarragonEF;-inkscape-font-specification:TarragonEF;stroke-width:0.106041"
           x="-223.91025"
           y="502.74298"
           id="tspan15323">service, fidelity to every trust</tspan><tspan
           sodipodi:role="line"
           style="font-style:normal;font-variant:normal;font-weight:normal;font-stretch:normal;font-family:TarragonEF;-inkscape-font-specification:TarragonEF;stroke-width:0.106041"
           x="-223.91025"
           y="508.13977"
           id="tspan15325">and a child-like trust in <tspan
   style="fill:#aa0000;stroke-width:0.106041"
   id="tspan87916">God</tspan>.</tspan></text>
      <path
         d="m -219.78923,407.31065 c -0.089,-0.0388 -0.22636,-0.14715 -0.30519,-0.24084 -0.21547,-0.25606 -0.19448,-0.48664 0.0823,-0.9036 0.12406,-0.18694 0.2614,-0.35562 0.30518,-0.37484 0.0438,-0.0192 0.13933,-0.0671 0.21231,-0.10645 0.18152,-0.0978 1.12993,-0.0734 1.33859,0.0345 0.22618,0.11696 0.29206,0.29975 0.18726,0.51952 -0.0991,0.20773 -0.0463,0.29713 0.17536,0.29713 0.17364,0 0.47673,0.19996 0.53141,0.35058 0.0501,0.13795 -0.0521,0.35853 -0.1772,0.38263 -0.0503,0.01 -0.15446,-0.0319 -0.2314,-0.0924 -0.16812,-0.13224 -0.54846,-0.14838 -0.72775,-0.0309 -0.33458,0.21922 -1.06661,0.30589 -1.39082,0.16467 z m 1.0817,-0.29284 c 0.30496,-0.0589 0.36258,-0.12172 0.25398,-0.27676 -0.12707,-0.18143 -0.10778,-0.33712 0.0507,-0.40933 0.16717,-0.0762 0.15337,-0.21681 -0.0308,-0.31364 -0.0909,-0.0478 -0.23651,-0.0593 -0.46638,-0.0367 -0.21279,0.0209 -0.35974,0.0116 -0.40461,-0.0256 -0.0954,-0.0792 -0.2315,-0.0191 -0.27351,0.12076 -0.0189,0.063 -0.10646,0.19042 -0.19451,0.28319 -0.19589,0.20641 -0.17397,0.37133 0.0684,0.51449 0.31755,0.18758 0.57616,0.22483 0.99672,0.14356 z"
         style="fill:#aa0000;stroke-width:0.0140431"
         id="path32614" />
      <path
         d="m -214.28168,412.4095 c -0.23667,-0.16576 -0.44743,-0.19208 -0.60509,-0.0756 -0.14176,0.10477 -0.37777,0.13702 -0.54184,0.0741 -0.0563,-0.0216 -0.0839,-0.0991 -0.0839,-0.23506 0,-0.17336 -0.10251,-0.36964 -0.19305,-0.36964 -0.0657,0 -0.27501,0.13659 -0.45277,0.29549 -0.24754,0.22129 -0.7303,0.38182 -0.93403,0.3106 -0.10245,-0.0358 -0.15006,-0.0933 -0.1619,-0.19545 -0.0136,-0.11751 0.0182,-0.16534 0.16933,-0.25451 0.10897,-0.0643 0.25147,-0.22561 0.34379,-0.38919 0.18642,-0.33033 0.60018,-0.71779 0.95101,-0.89058 0.21742,-0.10708 0.31689,-0.12167 0.74203,-0.10888 0.87619,0.0263 1.151,0.0234 1.34878,-0.0145 0.17196,-0.033 0.20497,-0.0211 0.28633,0.10306 0.0778,0.11874 0.0826,0.1716 0.0312,0.34314 -0.1027,0.34283 -0.0786,0.46364 0.12502,0.6261 0.24418,0.19483 0.2484,0.3779 0.0133,0.57615 -0.33864,0.28554 -0.79446,0.37546 -1.03813,0.2048 z m -0.49411,-0.42169 c 0.16047,-0.27197 0.24749,-0.28273 0.47669,-0.0589 0.14571,0.14229 0.2431,0.19289 0.37128,0.19289 0.40867,0 0.49892,-0.25504 0.21298,-0.60192 -0.14317,-0.1737 -0.1581,-0.21904 -0.10815,-0.32866 0.0785,-0.17233 0.014,-0.20598 -0.44229,-0.23065 -0.95963,-0.0519 -1.15174,-0.0363 -1.49808,0.12161 -0.25104,0.11444 -0.38284,0.21858 -0.54865,0.4335 -0.32667,0.42343 -0.19008,0.53521 0.24665,0.20184 0.45282,-0.34565 0.88168,-0.28937 0.95429,0.12523 0.0276,0.15797 0.13977,0.33213 0.21378,0.33213 0.007,0 0.0608,-0.0841 0.1215,-0.18704 z"
         style="fill:#aa0000;stroke-width:0.0140431"
         id="path32490-8" />
      <path
         d="m -238.25,431.84011 c -0.20442,-0.20442 -0.19639,-0.31074 0.0306,-0.40559 0.15992,-0.0668 0.18577,-0.10237 0.18577,-0.25551 0,-0.24526 0.17609,-0.45759 0.37947,-0.45759 0.15509,0 0.20754,-0.0424 0.57445,-0.46442 0.12728,-0.14641 0.3153,-0.15219 0.57479,-0.0177 0.10795,0.0559 0.26104,0.12668 0.34018,0.15715 0.16637,0.064 0.26156,0.32784 0.19385,0.53724 -0.14626,0.4523 -0.30461,0.85693 -0.36283,0.92709 -0.0766,0.0923 -0.26743,0.10422 -0.51774,0.0325 -0.11539,-0.0331 -0.30421,-0.0251 -0.58349,0.0247 -0.5783,0.10309 -0.64003,0.0972 -0.81506,-0.0778 z m 0.90638,-0.18986 c 0.073,-0.0417 0.27125,-0.0767 0.44059,-0.0777 0.29541,-0.002 0.31103,-0.009 0.38529,-0.17437 0.0425,-0.0949 0.12603,-0.2334 0.18548,-0.30781 0.0665,-0.0833 0.0944,-0.17093 0.0726,-0.22784 -0.0517,-0.1347 -0.42666,-0.30918 -0.62343,-0.29011 -0.15505,0.015 -0.16997,0.0333 -0.18582,0.22797 -0.0198,0.24389 -0.0869,0.34568 -0.22778,0.34568 -0.12086,0 -0.4239,0.40172 -0.38314,0.50792 0.0367,0.0956 0.165,0.0942 0.33623,-0.004 z"
         style="fill:#aa0000;stroke-width:0.0140431"
         id="path36697" />
      <path
         d="m -211.47874,441.90159 c -0.075,-0.0798 -0.11613,-0.18428 -0.10978,-0.27865 0.017,-0.25273 0.004,-0.28369 -0.12317,-0.28369 -0.14409,0 -0.24947,0.0917 -0.24947,0.21705 0,0.0493 -0.0449,0.14518 -0.0999,0.21305 -0.0889,0.10972 -0.11562,0.11624 -0.2416,0.0588 -0.17201,-0.0784 -0.3165,-0.3967 -0.27477,-0.60536 0.0166,-0.0827 0.11127,-0.27728 0.21052,-0.43243 0.20348,-0.31809 0.40709,-0.43945 0.86125,-0.51337 0.16191,-0.0263 0.37723,-0.0991 0.47849,-0.16171 0.13709,-0.0847 0.23451,-0.10614 0.38141,-0.0838 0.10851,0.0165 0.35814,0.0516 0.55472,0.0781 0.4172,0.0562 0.66544,0.2155 0.80978,0.51965 0.0915,0.19273 0.091,0.20425 -0.0162,0.41434 -0.0606,0.11886 -0.12264,0.31165 -0.13783,0.42841 -0.0549,0.42221 -0.49352,0.63001 -0.87169,0.41298 -0.15283,-0.0878 -0.17003,-0.0867 -0.4432,0.0265 -0.37262,0.15443 -0.57682,0.15167 -0.72858,-0.01 z m 1.52387,-0.30757 c 0.035,-0.035 0.0636,-0.14347 0.0636,-0.24098 0,-0.0988 0.0511,-0.24641 0.11535,-0.33332 0.11124,-0.15047 0.11196,-0.15975 0.0201,-0.26124 -0.0524,-0.0579 -0.16996,-0.1291 -0.2613,-0.15828 -0.54612,-0.1745 -1.94415,0.0522 -1.94415,0.31527 0,0.0206 0.14128,0.0348 0.31394,0.0315 0.26101,-0.005 0.33631,0.0151 0.44666,0.11859 0.0729,0.0685 0.14783,0.18466 0.1663,0.25823 0.0348,0.13848 0.0727,0.14186 0.43381,0.0386 0.0812,-0.0233 0.16402,0.0136 0.29192,0.12985 0.1967,0.17884 0.2587,0.19667 0.35366,0.10171 z"
         style="fill:#aa0000;stroke-width:0.0140431"
         id="path38242" />
      <path
         d="m -199.80107,431.89936 c -0.15316,-0.0939 -0.1182,-0.34487 0.0663,-0.47627 0.21463,-0.15284 0.20443,-0.30705 -0.0335,-0.50681 -0.23618,-0.19829 -0.22194,-0.26962 0.12977,-0.65019 0.21711,-0.23492 0.28378,-0.27607 0.44735,-0.27607 0.15028,0 0.21548,0.0327 0.29883,0.14972 0.26962,0.37864 0.29105,1.13592 0.0414,1.4632 -0.0798,0.10465 -0.18777,0.21309 -0.23993,0.241 -0.15385,0.0824 -0.60851,0.11782 -0.71028,0.0555 z m 0.78887,-0.6006 c 0.0847,-0.26523 -0.007,-0.83106 -0.1355,-0.83106 -0.12812,0 -0.1762,0.22551 -0.10836,0.50827 0.0367,0.1534 0.0533,0.31442 0.0367,0.35782 -0.0167,0.0434 -0.0177,0.0916 -0.002,0.10699 0.0533,0.0533 0.173,-0.0278 0.20945,-0.14202 z"
         style="fill:#aa0000;stroke-width:0.0140431"
         id="path38376" />
    </g>
  </g>
</svg>
